<svg xmlns="http://www.w3.org/2000/svg" xmlns:xlink="http://www.w3.org/1999/xlink" version="1.1" x="0px" y="0px" viewBox="0 0 64 80" enable-background="new 0 0 64 64" xml:space="preserve"><g><g><path class="svgIcon" d="M56,30h-4v-4c0-1.104-0.896-2-2-2h-6c-1.104,0-2,0.896-2,2v4h-8V16c0-1.104-0.896-2-2-2H12c-1.104,0-2,0.896-2,2v26H8    c-1.104,0-2,0.896-2,2s0.896,2,2,2h2v2c0,1.104,0.896,2,2,2h2.263c0.892,3.444,4.017,6,7.737,6s6.845-2.556,7.737-6h8.527    c0.892,3.444,4.017,6,7.736,6c3.729,0,6.86-2.568,7.743-6.025C53.828,49.985,53.912,50,54,50h2c1.104,0,2-0.896,2-2V32    C58,30.896,57.104,30,56,30z M22,52c-2.206,0-4-1.794-4-4s1.794-4,4-4s4,1.794,4,4S24.206,52,22,52z M46,52c-2.206,0-4-1.794-4-4    s1.794-4,4-4s4,1.794,4,4S48.206,52,46,52z M54,46c-0.088,0-0.172,0.015-0.257,0.025C52.86,42.568,49.729,40,46,40    c-3.72,0-6.845,2.556-7.736,6h-8.527c-0.892-3.444-4.017-6-7.737-6s-6.845,2.556-7.737,6H14V18h16v14c0,1.104,0.896,2,2,2h12    c1.104,0,2-0.896,2-2v-4h2v4c0,1.104,0.896,2,2,2h4V46z"/><path d="M26,20h-8c-1.104,0-2,0.896-2,2v8c0,1.104,0.896,2,2,2h8c1.104,0,2-0.896,2-2v-8C28,20.896,27.104,20,26,20z M24,28h-4v-4    h4V28z"/><path d="M10,8c-1.104,0-2,0.896-2,2s0.896,2,2,2h24c1.104,0,2-0.896,2-2s-0.896-2-2-2H10z"/></g></g></svg>