<svg xmlns="http://www.w3.org/2000/svg" xmlns:xlink="http://www.w3.org/1999/xlink" version="1.1" x="0px" y="0px" viewBox="0 0 100 125" style="enable-background:new 0 0 100 100;" xml:space="preserve"><g><path d="M35.577,67.925c0-2.141,1.733-3.871,3.868-3.871c2.131,0,3.864,1.73,3.864,3.871c0,2.134-1.733,3.864-3.864,3.864   C37.311,71.789,35.577,70.059,35.577,67.925z M61.561,75.531c-1.25,0-2.262,1.013-2.262,2.27c0,3.268-4.474,6.03-9.764,6.03   c-5.293,0-9.763-2.763-9.763-6.03c0-1.257-1.016-2.27-2.266-2.27c-1.253,0-2.265,1.013-2.265,2.27   c0,5.921,6.28,10.561,14.294,10.561c8.014,0,14.292-4.64,14.292-10.561C63.826,76.544,62.811,75.531,61.561,75.531z M60.353,64.054   c-2.134,0-3.868,1.73-3.868,3.871c0,2.134,1.734,3.864,3.868,3.864s3.864-1.73,3.864-3.864   C64.217,65.784,62.486,64.054,60.353,64.054z M77.336,81.318C71.109,96.776,56.389,100,50.019,100s-20.02-2.346-27.32-18.682   c-16.332-8.074-8.488-24.75-8.286-25.07c2.5-3.902,5.886-1.896,6.665-1.076l2.583,2.717c0.26-0.532,0.542-1.058,0.833-1.57   c-1.83-1.688-0.881-15.259,2.169-16.771l4.598-12.225l-6.476-13.278c-0.769,0.278-1.596,0.438-2.464,0.438   c-3.999,0-7.242-3.242-7.242-7.241S18.322,0,22.321,0c3.685,0,6.723,2.756,7.178,6.315c19.905,0.683,31.166,11.757,37.148,21.088   c2.896,4.524,4.834,9.029,6.098,12.688c2.524,1.647,3.441,13.609,2.185,15.188c0.522,0.84,1.007,1.711,1.445,2.608l2.586-2.717   c0.775-0.82,4.162-2.826,6.661,1.076C85.826,56.568,93.571,73.827,77.336,81.318z M35.705,27.115l-4.313,11.471h36.305   c0.041,0,0.08,0.007,0.118,0.007c-4.528-11.199-15.211-27.624-38.98-28.201c-0.202,0.413-0.439,0.805-0.711,1.17L35.705,27.115z    M81.92,57.985l-7.209,7.587c-0.57-2.768-1.602-5.37-2.999-7.722h-43.69c-1.247,2.217-2.169,5.159-2.698,7.722l-7.209-7.587   c0,0-6.97,14.849,7.834,20.244c3.204,10.247,12.769,17.682,24.07,17.682c11.302,0,20.866-7.435,24.067-17.682   C88.893,72.834,81.92,57.985,81.92,57.985z"/></g></svg>