<svg xmlns="http://www.w3.org/2000/svg" viewBox="0 0 16 20" x="0px" y="0px"><title>xmas reindeer</title><path d="M11.47,6.255a4.962,4.962,0,0,0-.526-.385,5.692,5.692,0,0,0,2.2-.831,6.875,6.875,0,0,1,2.176-.072h0a.5.5,0,0,0,.362-.932,3.818,3.818,0,0,0-1.4-.1A4.257,4.257,0,0,0,15,1.5a.5.5,0,0,0-1,0,3.132,3.132,0,0,1-2.289,3.144A4.481,4.481,0,0,0,13,1.5V.5a.5.5,0,0,0-1,0v1A3.5,3.5,0,0,1,8.5,5h-1A3.5,3.5,0,0,1,4,1.5V.5a.5.5,0,0,0-1,0v1A4.481,4.481,0,0,0,4.289,4.644,3.132,3.132,0,0,1,2,1.5a.5.5,0,0,0-1,0,4.258,4.258,0,0,0,.718,2.431,3.809,3.809,0,0,0-1.4.1.492.492,0,0,0-.282.626.509.509,0,0,0,.625.313,6.607,6.607,0,0,1,2.2.066,5.692,5.692,0,0,0,2.2.831,4.957,4.957,0,0,0-.526.385,4.02,4.02,0,0,0-4.348.829.5.5,0,0,0,0,.771A4.471,4.471,0,0,0,3.051,9,3.873,3.873,0,0,0,3,9.44a6.081,6.081,0,0,0,1.587,3.834,3.5,3.5,0,0,0,6.826,0A6.081,6.081,0,0,0,13,9.44,3.873,3.873,0,0,0,12.949,9a4.471,4.471,0,0,0,2.869-1.14.5.5,0,0,0,0-.771A4.024,4.024,0,0,0,11.47,6.255ZM5.406,9.792a.5.5,0,1,1-.812-.584,1.819,1.819,0,0,1,2.813,0,.5.5,0,0,1-.812.584A.78.78,0,0,0,5.406,9.792ZM8,13.5a1,1,0,1,1,1-1A1,1,0,0,1,8,13.5Zm3.292-3.594a.5.5,0,0,1-.7-.114.78.78,0,0,0-1.187,0,.5.5,0,1,1-.812-.584,1.819,1.819,0,0,1,2.813,0A.5.5,0,0,1,11.292,9.906Z"/><text x="0" y="31" fill="#000000" font-size="5px" font-weight="bold" font-family="'Helvetica Neue', Helvetica, Arial-Unicode, Arial, Sans-serif">Created by icon 54</text><text x="0" y="36" fill="#000000" font-size="5px" font-weight="bold" font-family="'Helvetica Neue', Helvetica, Arial-Unicode, Arial, Sans-serif">from the Noun Project</text></svg>