<svg xmlns="http://www.w3.org/2000/svg" xmlns:xlink="http://www.w3.org/1999/xlink" version="1.1" x="0px" y="0px" viewBox="0 0 47 58.75" enable-background="new 0 0 47 47" xml:space="preserve"><path d="M45.289,27.399c-0.828,0-1.5,0.672-1.5,1.5c0,3.614-2.571,6.555-5.732,6.555H27.251v-5.021h8.75  c0.011,0,0.021-0.003,0.03-0.003c2.93-0.022,5.22-3.263,5.22-7.397v-4.237c0-0.829-0.672-1.5-1.5-1.5h-7.5  c-0.019,0-0.035,0.005-0.054,0.005c-0.055,0.002-0.109,0.008-0.164,0.017c-0.044,0.006-0.088,0.013-0.132,0.023  c-0.049,0.012-0.097,0.028-0.145,0.045c-0.045,0.015-0.089,0.03-0.131,0.05c-0.044,0.021-0.086,0.045-0.129,0.07  c-0.042,0.025-0.084,0.049-0.123,0.078c-0.037,0.027-0.072,0.057-0.107,0.088c-0.04,0.035-0.079,0.071-0.115,0.111  c-0.013,0.014-0.027,0.024-0.04,0.038l-3.176,3.712h-6.653c-0.335,0-1.156-0.959-1.156-2.737c0-1.647-0.183-9.598-3.485-10.192  c-0.125-0.034-0.254-0.058-0.39-0.058H1.711c-0.829,0-1.5,0.671-1.5,1.5v12.988c0,4.08,2.85,7.399,6.353,7.399h1.188v5.021h-6.04  c-0.829,0-1.5,0.672-1.5,1.5s0.671,1.5,1.5,1.5h36.346c4.815,0,8.732-4.286,8.732-9.555C46.789,28.071,46.117,27.399,45.289,27.399z   M3.211,23.034V11.546h12.708c0.472,0.685,1.208,3.211,1.208,7.25c0,3.217,1.826,5.737,4.156,5.737h7.344  c0.106,0,0.21-0.012,0.31-0.033c0.022-0.004,0.043-0.014,0.065-0.02c0.077-0.021,0.153-0.043,0.225-0.074  c0.034-0.015,0.065-0.035,0.098-0.053c0.058-0.03,0.115-0.062,0.169-0.099c0.032-0.023,0.063-0.052,0.094-0.078  c0.05-0.042,0.098-0.084,0.141-0.132c0.013-0.013,0.027-0.022,0.039-0.036l3.176-3.713h5.31v2.737c0,2.518-1.188,4.399-2.25,4.399  c-0.003,0-0.007,0.001-0.01,0.001h-9.926c-0.102-0.021-0.206-0.034-0.314-0.034s-0.213,0.013-0.314,0.034H9.565  c-0.102-0.021-0.207-0.034-0.314-0.034s-0.213,0.013-0.314,0.034H6.563C4.715,27.434,3.211,25.46,3.211,23.034z M10.751,30.434h13.5  v5.021h-13.5V30.434z"/></svg>